<svg width="91" height="85" viewBox="0 0 91 85" fill="none" xmlns="http://www.w3.org/2000/svg">
<path d="M91.01 37.786C91.0153 33.6014 87.6328 30.2049 83.4554 30.1998C79.2774 30.1946 75.8871 33.5828 75.8818 37.7673C75.8766 41.9519 79.2591 45.3484 83.4365 45.3536C87.6144 45.3587 91.0048 41.9706 91.01 37.786Z" fill="#FBBA97"/>
<path d="M15.3073 37.7899C15.3117 33.6053 11.9288 30.2094 7.75123 30.2049C3.57369 30.2004 0.183454 33.589 0.17896 37.7736C0.174465 41.9582 3.55741 45.3541 7.73496 45.3587C11.9125 45.3632 15.3028 41.9745 15.3073 37.7899Z" fill="#FBBA97"/>
<path fill-rule="evenodd" clip-rule="evenodd" d="M15.3067 7.46249H75.8865C83.1187 7.46249 89.0241 13.3113 89.0241 20.6224V20.6888C89.0241 27.9334 83.1849 33.8487 75.8865 33.8487H15.3067C8.07431 33.7822 2.16895 27.8669 2.16895 20.6224V20.5559C2.16895 13.3113 8.07431 7.46249 15.3067 7.46249Z" fill="#E57130"/>
<path fill-rule="evenodd" clip-rule="evenodd" d="M45.6295 0.350922C64.6064 0.350922 79.9336 15.7706 79.9336 34.7128V58.0414C79.9336 69.7393 70.4452 79.2435 58.7672 79.2435H32.4918C20.8138 79.2435 11.3254 69.7393 11.3254 58.0414V34.7128C11.259 15.7706 26.6527 0.350922 45.6295 0.350922Z" fill="#FBBA97"/>
<path d="M45.6298 84.3613C49.5142 84.3613 52.6631 81.1773 52.6631 77.2499C52.6631 73.3218 49.5142 70.1378 45.6298 70.1378C41.7454 70.1378 38.5964 73.3218 38.5964 77.2499C38.5964 81.1773 41.7454 84.3613 45.6298 84.3613Z" fill="#FBBA97"/>
<path fill-rule="evenodd" clip-rule="evenodd" d="M57.7723 45.4798L49.3453 42.0901C45.2315 40.4285 40.5205 42.4224 38.8617 46.5432C37.2029 50.664 39.1935 55.383 43.3073 57.0443L51.734 60.4341C55.8479 62.1621 60.5588 60.1684 62.2175 56.0477C63.9428 51.8603 61.8861 47.1414 57.7723 45.4798Z" fill="#E57130"/>
<path fill-rule="evenodd" clip-rule="evenodd" d="M33.2218 45.4798L41.6486 42.0901C45.7624 40.4285 50.4734 42.4224 52.1322 46.5432C53.7912 50.664 51.8005 55.383 47.6866 57.0443L39.2599 60.4341C35.1461 62.1621 30.4351 60.1684 28.7762 56.0477C27.1174 51.8603 29.108 47.1414 33.2218 45.4798Z" fill="#E57130"/>
<path fill-rule="evenodd" clip-rule="evenodd" d="M35.8757 20.2901C31.6292 20.2901 28.1125 23.7462 28.1125 28.0663V34.7792C28.1125 39.0329 31.5629 42.5555 35.8757 42.5555C40.1223 42.5555 43.639 39.0994 43.639 34.7792V27.9999C43.5726 23.7462 40.1223 20.2901 35.8757 20.2901Z" fill="white"/>
<path fill-rule="evenodd" clip-rule="evenodd" d="M37.5346 25.8067C39.6578 25.8067 41.383 27.5347 41.383 29.6616V34.1147C41.383 36.2415 39.6578 37.9696 37.5346 37.9696C35.4113 37.9696 33.6861 36.2415 33.6861 34.1147V29.6616C33.6198 27.5347 35.4113 25.8067 37.5346 25.8067Z" fill="#3C3C3C"/>
<path fill-rule="evenodd" clip-rule="evenodd" d="M55.317 20.2901C59.5638 20.2901 63.0801 23.7462 63.0801 28.0663V34.7792C63.0801 39.0329 59.6299 42.5555 55.317 42.5555C51.0706 42.5555 47.554 39.0994 47.554 34.7792V27.9999C47.554 23.7462 51.0706 20.2901 55.317 20.2901Z" fill="white"/>
<path fill-rule="evenodd" clip-rule="evenodd" d="M53.6584 25.8067C51.535 25.8067 49.8098 27.5347 49.8098 29.6616V34.1147C49.8098 36.2415 51.535 37.9696 53.6584 37.9696C55.7813 37.9696 57.5066 36.2415 57.5066 34.1147V29.6616C57.5066 27.5347 55.7813 25.8067 53.6584 25.8067Z" fill="#3C3C3C"/>
<path d="M45.6298 48.936C48.9646 48.936 51.6679 46.2282 51.6679 42.8878C51.6679 39.5475 48.9646 36.8396 45.6298 36.8396C42.2951 36.8396 39.5918 39.5475 39.5918 42.8878C39.5918 46.2282 42.2951 48.936 45.6298 48.936Z" fill="#FBBA97"/>
</svg>
