<svg width="88" height="100" viewBox="0 0 88 100" fill="none" xmlns="http://www.w3.org/2000/svg">
<path fill-rule="evenodd" clip-rule="evenodd" d="M78.7261 71.5992C83.667 71.5992 87.6858 67.5472 87.6858 62.566C87.6858 57.5847 83.667 53.5333 78.7261 53.5333C73.7853 53.5333 69.7664 57.5847 69.7664 62.566C69.7008 67.5472 73.7191 71.5992 78.7261 71.5992Z" fill="#A56644"/>
<path fill-rule="evenodd" clip-rule="evenodd" d="M8.95966 71.5992C13.9006 71.5992 17.9193 67.5472 17.9193 62.566C17.9193 57.5847 13.9006 53.5333 8.95966 53.5333C4.01866 53.5333 0 57.5847 0 62.566C0 67.5472 4.01866 71.5992 8.95966 71.5992Z" fill="#A56644"/>
<path fill-rule="evenodd" clip-rule="evenodd" d="M26.352 12.1547H61.2021C68.1855 12.1547 73.8515 17.8667 73.8515 24.9071V83.9529C73.8515 92.3881 67.0655 99.2292 58.6991 99.2292H28.8554C20.4887 99.2292 13.7031 92.3881 13.7031 83.9529V24.8406C13.7031 17.8667 19.3688 12.1547 26.352 12.1547Z" fill="#A56644"/>
<path fill-rule="evenodd" clip-rule="evenodd" d="M73.851 28.2941V54.596C71.4793 43.7696 65.4184 38.3898 55.6023 38.3898C44.9299 38.3898 48.4874 34.2718 66.2748 25.9695L73.851 28.2941Z" fill="#805840"/>
<path fill-rule="evenodd" clip-rule="evenodd" d="M13.7031 55.3264V28.2942L21.4769 25.9032C39.2644 34.1391 42.8219 38.3234 32.1494 38.3234C22.0698 38.3234 15.943 44.0354 13.7031 55.3264Z" fill="#805840"/>
<path fill-rule="evenodd" clip-rule="evenodd" d="M32.2151 47.4892C28.1306 47.4892 24.7708 50.8765 24.7708 54.9945V61.2376C24.7708 65.3557 28.1306 68.7429 32.2151 68.7429C36.2997 68.7429 39.6595 65.3557 39.6595 61.2376V54.9945C39.6595 50.8765 36.3656 47.4892 32.2151 47.4892Z" fill="white"/>
<path fill-rule="evenodd" clip-rule="evenodd" d="M55.0756 47.4892C59.1601 47.4892 62.52 50.8765 62.52 54.9945V61.2376C62.52 65.3557 59.1601 68.7429 55.0756 68.7429C50.9909 68.7429 47.6311 65.3557 47.6311 61.2376V54.9945C47.6311 50.8765 50.9251 47.4892 55.0756 47.4892Z" fill="white"/>
<path fill-rule="evenodd" clip-rule="evenodd" d="M20.0275 0H67.5265C71.0182 0 73.8515 2.85599 73.8515 6.37618V38.7219H13.7031V6.37618C13.7031 2.85599 16.536 0 20.0275 0Z" fill="#3C3C3C"/>
<path fill-rule="evenodd" clip-rule="evenodd" d="M43.1513 54.596H44.0736C45.1936 54.596 46.1159 55.4592 46.1818 56.5881L47.3017 74.654C47.3676 75.8496 46.5111 76.8461 45.3253 76.9123C45.2594 76.9123 45.2594 76.9123 45.1936 76.9123H42.229C41.0431 76.9123 40.1208 75.9824 40.1208 74.7868C40.1208 74.7207 40.1208 74.7207 40.1208 74.654L40.9773 56.5881C41.109 55.5259 42.0314 54.596 43.1513 54.596Z" fill="#8C4923"/>
<path fill-rule="evenodd" clip-rule="evenodd" d="M43.2828 71.6653H43.8757C44.798 71.6653 45.7203 72.0639 46.3791 72.7948L48.5532 75.3849C49.3437 76.3148 49.2778 77.7761 48.2896 78.5731C47.8944 78.9049 47.3673 79.1045 46.8403 79.1045H40.5817C39.33 79.1045 38.3418 78.1079 38.3418 76.8462C38.3418 76.3148 38.5394 75.8496 38.8688 75.4516L40.977 72.9276C41.504 72.1306 42.3604 71.6653 43.2828 71.6653Z" fill="#8C4923"/>
<path fill-rule="evenodd" clip-rule="evenodd" d="M34.0596 52.4706C32.0173 52.4706 30.3704 54.1308 30.3704 56.1901V60.5734C30.3704 62.6327 32.0173 64.2929 34.0596 64.2929C36.1019 64.2929 37.7489 62.6327 37.7489 60.5734V56.1901C37.8147 54.1975 36.1678 52.4706 34.0596 52.4706Z" fill="#3C3C3C"/>
<path fill-rule="evenodd" clip-rule="evenodd" d="M53.2966 52.4706C51.2544 52.4706 49.6074 54.1308 49.6074 56.1901V60.5734C49.6074 62.6327 51.2544 64.2929 53.2966 64.2929C55.3391 64.2929 56.9857 62.6327 56.9857 60.5734V56.1901C56.9857 54.1975 55.3391 52.4706 53.2966 52.4706Z" fill="#3C3C3C"/>
<path d="M46.8404 88.071C46.1157 88.071 45.4569 87.4729 45.4569 86.7426C45.3911 85.9455 45.984 85.2813 46.7745 85.2146C51.5837 84.8828 54.1531 82.6912 54.8777 78.3074C55.0095 77.5104 55.734 76.979 56.5248 77.1118C57.315 77.2447 57.8422 77.975 57.7104 78.7721C56.7222 84.3514 53.0331 87.5396 47.038 88.0043C46.9063 88.071 46.8404 88.071 46.8404 88.071Z" fill="#814728"/>
</svg>
