<svg width="94" height="93" viewBox="0 0 94 93" fill="none" xmlns="http://www.w3.org/2000/svg">
<path fill-rule="evenodd" clip-rule="evenodd" d="M93.3345 90.3865L85.8707 34.162C83.3603 14.6515 66.7152 0.150391 47.0974 0.150391C27.4797 0.150391 10.9664 14.7174 8.5225 34.162L1.58691 90.3865C1.58691 90.4526 1.58691 90.5183 1.58691 90.6501C1.58691 91.7049 2.4456 92.628 3.5685 92.628H17.5717C18.6286 92.628 19.4873 92.2983 19.8836 91.3752L21.0725 87.3548C21.1386 87.1568 21.3368 87.025 21.5349 87.0912C21.667 87.1568 21.7331 87.223 21.7991 87.3548L22.922 91.2434C23.3184 92.2982 24.243 92.628 25.2999 92.628H91.419C91.4852 92.628 91.617 92.628 91.6831 92.628C92.7401 92.43 93.5324 91.4413 93.3345 90.3865Z" fill="#7D65AC"/>
<path fill-rule="evenodd" clip-rule="evenodd" d="M7.86207 37.0623H12.5518C16.6471 37.0623 19.9497 40.3579 19.9497 44.4446C19.9497 48.5312 16.6471 51.827 12.5518 51.827H7.86207C3.76676 51.7611 0.464111 48.4654 0.464111 44.4446C0.464111 40.3579 3.76676 37.0623 7.86207 37.0623Z" fill="#FBC5B8"/>
<path fill-rule="evenodd" clip-rule="evenodd" d="M80.3884 37.0623H85.0778C89.1733 37.0623 92.4759 40.3579 92.4759 44.4446C92.4759 48.5312 89.1733 51.827 85.0778 51.827H80.3884C76.2929 51.827 72.9902 48.5312 72.9902 44.4446C72.9902 40.3579 76.2929 37.0623 80.3884 37.0623Z" fill="#FBC5B8"/>
<path fill-rule="evenodd" clip-rule="evenodd" d="M46.3709 5.9509H47.692C67.2434 5.9509 83.0962 21.7703 83.0962 41.2808V60.7256C83.0962 69.4921 75.9627 76.6109 67.1778 76.6109H26.8853C18.1003 76.6109 10.9666 69.4921 10.9666 60.7256V41.2808C10.9666 21.7703 26.8193 5.9509 46.3709 5.9509Z" fill="#FBC5B8"/>
<path d="M54.4953 70.5464C54.2974 70.5464 54.0989 70.4808 53.901 70.4146C53.2404 70.0854 53.0425 69.2941 53.3728 68.7008C55.42 64.8121 58.657 60.6594 62.9505 62.7686C63.611 63.0983 63.8751 63.8891 63.5448 64.4824C63.2146 65.1419 62.4217 65.4055 61.8274 65.0757C61.1007 64.746 58.9873 63.6255 55.7503 69.8874C55.3544 70.2828 54.9579 70.5464 54.4953 70.5464Z" fill="#EE9583"/>
<path fill-rule="evenodd" clip-rule="evenodd" d="M85.9369 34.0961C83.3604 14.6515 66.7153 0.150391 47.0975 0.150391C46.8994 0.150391 46.6352 0.150391 46.437 0.150391V15.8379C46.437 27.5047 55.8827 36.9304 67.5738 36.9304H86.201V36.1394L85.9369 34.0961Z" fill="#7D65AC"/>
<path fill-rule="evenodd" clip-rule="evenodd" d="M69.8856 42.4671H60.5064C54.6934 42.4671 50.0039 47.147 50.0039 52.9473V54.0678L66.3189 52.4201C69.0272 52.1565 71.0749 49.9154 71.0749 47.2129V43.6536C71.0749 42.9944 70.5462 42.4671 69.8856 42.4671Z" fill="#7D65AC"/>
<path d="M60.5064 47.938H70.1503C70.6123 47.938 71.0088 48.2017 71.0088 48.5313V48.6631C71.0088 52.7498 66.3189 56.0456 60.5064 56.0456H50.8626C50.4002 56.0456 50.0039 55.782 50.0039 55.4523V55.3205C50.0039 51.2338 54.6934 47.938 60.5064 47.938Z" fill="white"/>
<path fill-rule="evenodd" clip-rule="evenodd" d="M60.5063 47.938C58.1282 47.938 56.0148 48.4654 54.2312 49.3882V50.0473C54.2312 52.2884 56.0805 54.1339 58.3267 54.1339C60.5724 54.1339 62.4217 52.2884 62.4217 50.0473V47.938H60.5063Z" fill="#3C3C3C"/>
<path fill-rule="evenodd" clip-rule="evenodd" d="M47.0975 44.4445C47.8902 44.4445 48.5507 45.0378 48.6168 45.8287L50.0039 59.0117C50.202 60.6594 49.0131 62.1096 47.3617 62.3071C47.2296 62.3071 47.1636 62.3071 47.0315 62.3071C45.3801 62.3071 44.0591 60.9891 44.0591 59.341C44.0591 59.2092 44.0591 59.1435 44.0591 59.0117L45.5123 45.7628C45.6444 44.9719 46.3049 44.4445 47.0975 44.4445Z" fill="#EE9583"/>
<path fill-rule="evenodd" clip-rule="evenodd" d="M47.0976 4.8962C46.6353 3.70975 45.3142 3.05061 44.0592 3.512L31.5091 8.32372L30.1881 8.98289C16.9775 15.5743 8.65479 29.0866 8.65479 43.8514V90.2547C8.65479 91.5731 9.71164 92.628 11.0327 92.628H17.572C18.6288 92.628 19.4875 92.2983 19.8838 91.3752L21.0728 87.3548C21.1388 87.1568 21.337 87.025 21.5352 87.0912C21.6673 87.1568 21.7333 87.223 21.7994 87.3548L22.9223 91.2434C23.3185 92.2982 24.2433 92.628 25.3001 92.628H42.7381C43.795 92.628 44.6537 91.7711 44.7197 90.7162L47.2958 5.819C47.2958 5.48942 47.2297 5.22577 47.0976 4.8962Z" fill="#7D65AC"/>
</svg>
